<svg width="638" height="638" viewBox="0 0 638 638" fill="none" xmlns="http://www.w3.org/2000/svg">
<g clip-path="url(#clip0)">
<path d="M333.011 296.516C333.88 296.516 334.749 296.516 335.835 296.734C341.918 297.385 349.086 303.033 349.738 313.895V317.588C348.869 327.797 340.832 340.614 318.023 356.254C295.431 339.962 287.828 327.146 286.959 316.936V313.243C287.828 302.382 294.996 296.951 301.296 296.299C302.382 296.299 303.251 296.082 304.12 296.082C311.289 296.082 314.547 299.34 318.457 303.902C322.584 299.558 326.06 296.516 333.011 296.516Z" fill="#B22222"/>
<path opacity="0.1" d="M544.157 544.075C668.436 419.796 668.436 218.3 544.157 94.0206C419.878 -30.2585 218.382 -30.2586 94.1025 94.0206C-30.1767 218.3 -30.1767 419.796 94.1025 544.075C218.382 668.354 419.878 668.354 544.157 544.075Z" stroke="#B72020" stroke-width="0.75" stroke-miterlimit="10" stroke-dasharray="5.98 5.98"/>
<path opacity="0.2" d="M523.113 523.032C635.771 410.375 635.771 227.721 523.113 115.064C410.456 2.40693 227.803 2.40698 115.146 115.064C2.48874 227.721 2.48874 410.374 115.146 523.032C227.803 635.689 410.456 635.689 523.113 523.032Z" stroke="#B62020" stroke-width="0.75" stroke-miterlimit="10" stroke-dasharray="6.96 6.96"/>
<path opacity="0.3" d="M319.108 578.045C462.115 578.045 578.044 462.116 578.044 319.109C578.044 176.103 462.115 60.1729 319.108 60.1729C176.102 60.1729 60.1719 176.103 60.1719 319.109C60.1719 462.116 176.102 578.045 319.108 578.045Z" stroke="#B62121" stroke-width="0.75" stroke-miterlimit="10" stroke-dasharray="8.07 8.07"/>
<path opacity="0.4" d="M319.109 548.285C445.679 548.285 548.285 445.679 548.285 319.109C548.285 192.538 445.679 89.9326 319.109 89.9326C192.538 89.9326 89.9326 192.538 89.9326 319.109C89.9326 445.679 192.538 548.285 319.109 548.285Z" stroke="#B52121" stroke-width="0.75" stroke-miterlimit="10" stroke-dasharray="9.07 9.07"/>
<path opacity="0.5" d="M319.108 518.525C429.242 518.525 518.524 429.243 518.524 319.109C518.524 208.975 429.242 119.693 319.108 119.693C208.974 119.693 119.692 208.975 119.692 319.109C119.692 429.243 208.974 518.525 319.108 518.525Z" stroke="#B42121" stroke-width="0.75" stroke-miterlimit="10" stroke-dasharray="10 10"/>
<path opacity="0.6" d="M319.109 488.982C412.927 488.982 488.982 412.927 488.982 319.109C488.982 225.291 412.927 149.236 319.109 149.236C225.291 149.236 149.236 225.291 149.236 319.109C149.236 412.927 225.291 488.982 319.109 488.982Z" stroke="#B42121" stroke-width="0.75" stroke-miterlimit="10" stroke-dasharray="11 11"/>
<path opacity="0.7" d="M319.108 459.221C396.49 459.221 459.221 396.49 459.221 319.108C459.221 241.727 396.49 178.996 319.108 178.996C241.727 178.996 178.996 241.727 178.996 319.108C178.996 396.49 241.727 459.221 319.108 459.221Z" stroke="#B32222" stroke-width="0.75" stroke-miterlimit="10" stroke-dasharray="12 12"/>
<path d="M319.109 429.461C380.055 429.461 429.461 380.055 429.461 319.109C429.461 258.163 380.055 208.757 319.109 208.757C258.163 208.757 208.757 258.163 208.757 319.109C208.757 380.055 258.163 429.461 319.109 429.461Z" stroke="#B32222" stroke-width="0.75" stroke-miterlimit="10" stroke-dasharray="13 13"/>
<path d="M319.109 399.7C363.619 399.7 399.701 363.618 399.701 319.108C399.701 274.599 363.619 238.517 319.109 238.517C274.6 238.517 238.518 274.599 238.518 319.108C238.518 363.618 274.6 399.7 319.109 399.7Z" stroke="#B22222" stroke-width="0.75" stroke-miterlimit="10"/>
</g>
<defs>
<clipPath id="clip0">
<rect width="638" height="638" fill="white"/>
</clipPath>
</defs>
</svg>
