<svg width="24" height="24" viewBox="0 0 24 24" fill="none" xmlns="http://www.w3.org/2000/svg">
<path d="M19.6603 1.16406H4.33899C2.7781 1.16406 1.5127 2.42769 1.5127 3.9865V19.287C1.5127 20.8458 2.77805 22.1094 4.33899 22.1094H11.8954L11.9082 14.6247H9.96106C9.70801 14.6247 9.50262 14.4203 9.50165 14.1676L9.49231 11.755C9.49134 11.5009 9.69734 11.2944 9.95177 11.2944H11.8954V8.96319C11.8954 6.25783 13.5499 4.78474 15.9666 4.78474H17.9497C18.2034 4.78474 18.4091 4.99015 18.4091 5.24358V7.27793C18.4091 7.53125 18.2035 7.73661 17.9499 7.73676L16.7329 7.73733C15.4187 7.73733 15.1642 8.36099 15.1642 9.27626V11.2945H18.0521C18.3272 11.2945 18.5407 11.5344 18.5083 11.8073L18.2219 14.22C18.1945 14.4508 17.9985 14.6248 17.7657 14.6248H15.1771L15.1642 22.1095H19.6604C21.2213 22.1095 22.4866 20.8459 22.4866 19.2871V3.9865C22.4866 2.42769 21.2212 1.16406 19.6603 1.16406Z" fill="#B81F21"/>
</svg>
