<svg width="116" height="100" viewBox="0 0 116 100" fill="none" xmlns="http://www.w3.org/2000/svg">
<g clip-path="url(#clip0)">
<path fill-rule="evenodd" clip-rule="evenodd" d="M91.2021 45.3809C91.2169 45.4537 91.2169 45.4537 91.2317 45.4829V45.3809H91.2021Z" fill="#B22222"/>
<path fill-rule="evenodd" clip-rule="evenodd" d="M91.2021 45.3809C91.2169 45.4537 91.2169 45.4537 91.2317 45.4829V45.3809H91.2021Z" fill="#B22222"/>
<path d="M38.5164 61.2139C36.8992 61.2139 35.7218 60.4716 35.2962 60.1575C34.3315 59.4437 33.6222 58.1732 33.4378 56.8313C33.2392 55.3609 34.4025 53.2339 34.5301 52.9912C34.672 52.7485 34.9699 52.6628 35.2111 52.8056C35.4522 52.9484 35.5373 53.2481 35.3955 53.4908C35.0834 54.0618 34.289 55.7464 34.4166 56.7028C34.6011 58.0019 35.2962 58.9298 35.8778 59.3581C36.4027 59.7435 38.332 60.9284 40.8146 59.6008C41.2685 59.3581 41.7083 59.1439 42.1339 58.9441C44.3044 57.902 45.2548 57.3595 44.8151 55.5037C44.659 54.8327 44.2334 54.3616 43.5525 54.1189C41.8502 53.5051 38.9562 54.4045 36.3601 56.3745C36.1332 56.5458 35.8211 56.503 35.665 56.2746C35.4948 56.0461 35.5373 55.7321 35.7643 55.5751C38.6583 53.3766 41.8502 52.4344 43.893 53.1768C44.886 53.5337 45.5385 54.2617 45.7797 55.2753C46.4323 58.0019 44.5455 58.9013 42.5595 59.8577C42.1481 60.0576 41.7225 60.2574 41.2827 60.5001C40.2755 61.0283 39.3392 61.2139 38.5164 61.2139Z" fill="#B22222"/>
<path d="M41.2812 60.2431C41.1535 60.2431 41.0116 60.186 40.9123 60.086C40.813 59.9718 39.9051 58.9726 40.0328 57.9019C40.0753 57.5307 40.2598 57.0168 40.8981 56.6028C42.2316 55.732 44.3454 55.4465 45.2816 55.7748C45.6647 55.9176 45.8207 56.146 45.8775 56.3173C45.9626 56.5743 45.8207 56.8598 45.5654 56.9597C45.3384 57.0311 45.0972 56.9454 44.9837 56.7456C44.5723 56.5457 42.6856 56.6599 41.4514 57.4594C41.196 57.6164 41.0684 57.8162 41.04 58.0304C40.9833 58.5586 41.4656 59.201 41.65 59.4151C41.8344 59.6149 41.8344 59.929 41.6216 60.1289C41.5223 60.2002 41.4088 60.2431 41.2812 60.2431Z" fill="#B22222"/>
<path d="M41.8778 64.0689C40.0052 64.0689 38.5299 61.2709 38.3596 60.9425C38.232 60.6999 38.3313 60.4001 38.5724 60.2716C38.8136 60.1431 39.1115 60.243 39.2392 60.4857C39.5796 61.1709 40.7855 63.0696 41.8636 63.0696C41.8778 63.0696 41.9062 63.0696 41.9204 63.0696C43.4241 62.9697 49.1411 60.1146 49.5951 59.2438C49.5525 58.5157 49.2404 57.0882 48.3467 56.6028C47.6941 56.2459 46.7862 56.4315 45.6513 57.1167C45.4101 57.2595 45.1122 57.1881 44.9704 56.9454C44.8285 56.7027 44.8994 56.4029 45.1406 56.2602C46.6018 55.3751 47.8502 55.1895 48.829 55.7177C50.1483 56.4315 50.5597 58.273 50.6023 59.258C50.6732 60.914 43.268 63.9832 41.9913 64.0689C41.9629 64.0689 41.9204 64.0689 41.8778 64.0689Z" fill="#B22222"/>
<path d="M45.9204 62.6276C45.8069 62.6276 45.6792 62.5848 45.5941 62.4991C45.4948 62.4134 44.601 61.5712 44.672 60.5005C44.7145 59.8581 45.0692 59.3014 45.7501 58.8446C47.9064 57.3742 49.9492 58.1593 50.0343 58.1879C50.2897 58.2878 50.4174 58.5876 50.3181 58.8446C50.2188 59.1015 49.9208 59.23 49.6655 59.1301C49.5946 59.1015 48.0057 58.5162 46.3034 59.6868C45.9062 59.9581 45.6792 60.2578 45.665 60.5719C45.6366 61.0716 46.0764 61.5997 46.2608 61.7711C46.4594 61.9566 46.4878 62.2707 46.3034 62.4848C46.2041 62.5705 46.0622 62.6276 45.9204 62.6276Z" fill="#B22222"/>
<path d="M47.141 66.5665C45.5522 66.5665 43.7789 63.8398 43.4384 63.2831C43.2966 63.0404 43.3675 62.7406 43.5945 62.5979C43.8214 62.4551 44.1335 62.5265 44.2754 62.7549C44.9989 63.9255 46.3608 65.5529 47.1268 65.5529C48.3752 65.5529 52.3331 63.6971 52.8013 62.7263C53.0283 62.2553 53.1985 61.2988 52.7303 60.5993C52.3048 59.9712 51.3968 59.6714 50.1343 59.7713C49.8506 59.7999 49.6236 59.5857 49.5952 59.3002C49.581 59.029 49.7796 58.7863 50.0634 58.7578C52.1487 58.615 53.1134 59.3716 53.5673 60.0283C54.2341 61.0133 54.1064 62.3409 53.7092 63.1546C53.0283 64.5964 48.6589 66.5665 47.141 66.5665Z" fill="#B22222"/>
<path d="M50.3465 65.5394C50.2472 65.5394 50.1621 65.5109 50.077 65.4538C49.9777 65.3967 49.1407 64.8114 48.9988 63.8692C48.9421 63.498 48.9846 62.9413 49.4811 62.3274C50.3891 61.2139 51.9353 60.8285 52.7581 60.6286C52.9284 60.5858 53.1412 60.5287 53.1979 60.5001C53.4249 60.3431 53.7228 60.4145 53.8788 60.6429C54.0349 60.8713 53.9498 61.1996 53.7228 61.3424C53.5668 61.4423 53.354 61.4994 52.9851 61.5851C52.2191 61.7707 50.9423 62.099 50.233 62.9555C50.0202 63.2125 49.9351 63.4552 49.9777 63.6979C50.0486 64.1975 50.6019 64.583 50.616 64.5972C50.843 64.7543 50.9139 65.0683 50.7579 65.2967C50.6586 65.468 50.5026 65.5394 50.3465 65.5394Z" fill="#B22222"/>
<path d="M51.027 68.251C49.5942 68.251 48.4026 66.1953 48.2749 65.9526C48.1472 65.7099 48.2323 65.4102 48.4735 65.2674C48.7147 65.1246 49.0126 65.2246 49.1545 65.4673C49.4949 66.0668 50.417 67.3088 51.0696 67.2517C52.318 67.1518 54.687 66.1525 54.914 65.2959C55.0133 64.9105 54.914 64.4822 54.6445 64.1253C54.3182 63.6971 53.8217 63.4544 53.2826 63.4544C53.0131 63.4544 52.7861 63.2403 52.7861 62.9548C52.7861 62.6835 52.9989 62.4551 53.2826 62.4408C54.1338 62.4123 54.914 62.8263 55.4389 63.4972C55.9071 64.0968 56.0773 64.8534 55.8929 65.5386C55.4815 67.1089 52.3889 68.1368 51.1689 68.2367C51.098 68.251 51.0696 68.251 51.027 68.251Z" fill="#B22222"/>
<path d="M52.6867 67.8802C52.5165 67.8802 52.3463 67.7945 52.2611 67.6232C52.2186 67.5518 51.8639 66.8523 52.2186 66.0101C52.5874 65.1393 53.5805 64.4826 55.1551 64.0543C55.4246 63.9829 55.6942 64.14 55.7651 64.4112C55.836 64.6824 55.68 64.9537 55.4105 65.025C53.85 65.439 53.3109 65.9958 53.1407 66.3812C52.9705 66.7809 53.1265 67.1093 53.1407 67.1236C53.2684 67.3662 53.1691 67.666 52.9279 67.7945C52.8428 67.8516 52.7577 67.8802 52.6867 67.8802Z" fill="#B22222"/>
<path d="M56.9147 68.5074C55.2975 68.5074 54.3186 67.4652 53.9782 66.7515C53.8647 66.4945 53.964 66.1947 54.2193 66.0805C54.4747 65.9663 54.7584 66.0663 54.8861 66.3089C54.9712 66.4945 55.8224 68.0648 58.1063 67.2654C59.0994 66.9228 59.6668 66.4089 59.8371 65.7094C60.0924 64.6958 59.6243 62.6687 56.0068 58.7715C55.8224 58.5716 55.8224 58.2575 56.0352 58.0577C56.2338 57.8721 56.5459 57.8721 56.7445 58.0862C59.9364 61.5266 61.2699 64.0962 60.8017 65.952C60.5464 66.9942 59.7519 67.7508 58.4326 68.2219C57.8652 68.4217 57.3687 68.5074 56.9147 68.5074Z" fill="#B22222"/>
<path d="M64.0931 69.0939C61.0998 69.0939 59.8657 66.3102 59.8515 66.2674C59.738 66.0104 59.8657 65.7106 60.1068 65.6107C60.3622 65.4965 60.6459 65.6107 60.7594 65.8676C60.8161 65.9961 62.178 68.994 65.6678 67.7948C66.8594 67.3809 67.5687 66.5957 67.7106 65.5393C67.9517 63.6692 66.4054 60.4429 61.3268 57.0025C61.0998 56.8455 61.0431 56.5314 61.1991 56.303C61.3552 56.0746 61.6673 56.0175 61.8943 56.1745C66.5331 59.3152 69.0724 62.8698 68.7036 65.6821C68.5192 67.1239 67.5545 68.2231 65.9941 68.7656C65.2989 68.9797 64.6747 69.0939 64.0931 69.0939Z" fill="#B22222"/>
<path d="M69.5969 65.0534C68.9444 65.0534 68.3628 64.8535 68.0081 64.6537C67.7669 64.5109 67.6818 64.2111 67.8237 63.9685C67.9514 63.7258 68.2635 63.6401 68.5046 63.7686C68.5755 63.8114 70.0793 64.6109 71.2993 63.2261C71.8525 62.6123 72.2072 61.2989 71.7958 59.7572C71.356 58.1012 69.6253 55.0177 63.0713 52.8621C62.816 52.7765 62.6599 52.4909 62.7451 52.234C62.8302 51.9628 63.1139 51.82 63.3692 51.9057C70.0225 54.0898 72.1363 57.2447 72.7463 59.4859C73.2853 61.5131 72.7037 63.1119 72.0228 63.8828C71.2709 64.7679 70.3772 65.0534 69.5969 65.0534Z" fill="#B22222"/>
<path d="M58.759 69.3367C58.532 69.3367 58.3334 69.1796 58.2766 68.9512C58.1206 68.3231 57.922 68.109 57.922 68.109C57.7376 67.9091 57.7234 67.6093 57.9078 67.4095C58.0922 67.2096 58.3901 67.1953 58.5887 67.3666C58.6597 67.4237 59.0143 67.7664 59.2555 68.7085C59.3264 68.9798 59.1562 69.251 58.9008 69.3224C58.8441 69.3367 58.8015 69.3367 58.759 69.3367Z" fill="#B22222"/>
<path d="M66.2624 69.9507C66.0354 69.9507 65.8226 69.7937 65.7801 69.551C65.624 68.8372 65.4396 68.5659 65.4396 68.5517C65.2836 68.3233 65.3403 68.0092 65.5673 67.8522C65.7943 67.6951 66.0922 67.738 66.2482 67.9521C66.2908 68.0235 66.5603 68.3946 66.7447 69.3226C66.8015 69.5938 66.6312 69.865 66.3617 69.9221C66.3333 69.9507 66.2908 69.9507 66.2624 69.9507Z" fill="#B22222"/>
<path d="M72.1508 65.282C71.9522 65.282 71.7677 65.1678 71.6826 64.9679L71.1861 63.7688C71.0868 63.5118 71.2003 63.212 71.4556 63.1121C71.711 63.0122 72.0089 63.1264 72.1082 63.3833L72.6047 64.5825C72.704 64.8394 72.5905 65.1392 72.3352 65.2391C72.2784 65.2677 72.2075 65.282 72.1508 65.282Z" fill="#B22222"/>
<path d="M72.1501 59.7564C71.9373 59.7564 71.7529 59.6279 71.682 59.4137C71.5969 59.1568 71.7387 58.8713 71.9941 58.7713C72.2494 58.6857 78.1367 56.6015 78.5197 49.6493C78.5339 49.3781 78.7751 49.1496 79.0446 49.1782C79.3141 49.1925 79.5269 49.4352 79.5127 49.7064C79.1013 57.3581 72.3771 59.7135 72.3062 59.7278C72.2494 59.7564 72.2069 59.7564 72.1501 59.7564Z" fill="#B22222"/>
<path d="M40.4161 43.2119C39.1252 43.2119 37.7775 43.1262 36.6 42.8978C34.6707 42.4981 33.9472 41.4274 33.6635 40.5995C33.2947 39.4717 33.6068 38.2155 34.1033 37.6587C34.8126 36.8736 37.6214 36.6737 41.5226 36.4738C42.4731 36.431 43.2817 36.3882 43.8066 36.3311C44.3598 36.274 45.0408 36.1027 45.9203 35.8885C48.1759 35.3318 51.9494 34.4182 58.546 34.204C67.7386 33.9043 74.1224 40.0142 74.3919 40.2711C74.5905 40.4567 74.5905 40.785 74.4061 40.9849C74.2075 41.1848 73.8954 41.1848 73.6968 40.9992C73.64 40.9421 67.313 34.9178 58.5744 35.2176C52.0913 35.4175 48.5164 36.2883 46.1615 36.8736C45.2536 37.102 44.5301 37.2733 43.9201 37.3304C43.3668 37.3875 42.544 37.4303 41.5794 37.4731C39.5507 37.5731 35.3375 37.8015 34.8551 38.3297C34.6282 38.5866 34.3586 39.4574 34.6282 40.2854C34.8977 41.1277 35.6354 41.6701 36.8128 41.9128C40.0756 42.5695 45.0692 41.9128 45.1117 41.9128C45.3812 41.87 45.6366 42.0698 45.6792 42.3411C45.7217 42.6123 45.5231 42.8693 45.2536 42.9121C45.0975 42.9264 42.8845 43.2119 40.4161 43.2119Z" fill="#B22222"/>
<path d="M54.3189 44.7673C52.574 44.7673 50.971 44.5389 50.0347 44.3819C47.7223 43.9822 45.0979 42.9115 44.9844 42.8687C44.7291 42.7688 44.6014 42.469 44.7007 42.212C44.8 41.955 45.0979 41.8266 45.3533 41.9265C45.3816 41.9408 48.0061 42.9972 50.2049 43.3826C51.6519 43.6396 56.5603 44.3391 59.3266 42.7259C59.5678 42.5832 59.8657 42.6688 60.0075 42.9115C60.1494 43.1542 60.0643 43.454 59.8231 43.5967C58.2768 44.5104 56.2056 44.7673 54.3189 44.7673Z" fill="#B22222"/>
<path d="M69.4556 56.1167C69.2996 56.1167 69.1435 56.0454 69.0442 55.9026C68.8882 55.6742 68.9449 55.3601 69.1719 55.2031C69.1861 55.1888 69.6968 54.8177 69.7819 54.0753C69.867 53.333 69.5265 52.4907 68.7605 51.5486C66.5616 48.879 64.8309 48.5793 58.4188 47.4372L57.6811 47.3087C57.6528 47.3087 57.6386 47.2945 57.6102 47.2945C54.6311 46.338 53.8225 46.0382 52.5741 45.4529C51.3825 44.8962 49.6802 44.2538 49.666 44.2538C49.4106 44.1538 49.2829 43.8683 49.3681 43.6114C49.4674 43.3544 49.7511 43.2259 50.0064 43.3116C50.0774 43.3401 51.7513 43.9683 52.9855 44.5393C54.1772 45.096 54.9574 45.3958 57.8656 46.3237L58.5607 46.4522C65.1005 47.6085 67.0723 47.9511 69.4982 50.9062C70.4628 52.0768 70.8742 53.1902 70.7466 54.2324C70.5905 55.403 69.7535 56.0025 69.711 56.0311C69.6542 56.0882 69.5549 56.1167 69.4556 56.1167Z" fill="#B22222"/>
<path d="M38.0612 40.672C35.38 40.672 34.2309 39.0303 33.9897 38.1309C33.9188 37.8597 34.0749 37.5885 34.3444 37.5171C34.6139 37.4457 34.8835 37.6027 34.9544 37.874C34.9686 37.9454 35.5218 39.8012 38.3307 39.6727C39.1677 39.6299 39.7493 39.3872 40.0472 38.9589C40.5437 38.2451 40.2458 37.1888 40.2458 37.1888C40.1607 36.9175 40.3168 36.6463 40.5863 36.5606C40.8558 36.475 41.1254 36.632 41.2105 36.889C41.2247 36.9461 41.6644 38.4164 40.8842 39.5299C40.3877 40.2437 39.5507 40.6291 38.3874 40.672C38.274 40.672 38.1747 40.672 38.0612 40.672Z" fill="#B22222"/>
<path d="M65.7099 36.0884C65.4688 36.0884 65.2702 35.9171 65.2134 35.6744C65.1567 35.4032 65.3411 35.1319 65.6106 35.0891L74.7891 33.3189C75.0586 33.2618 75.3281 33.4474 75.3707 33.7187C75.4132 33.9899 75.243 34.2611 74.9735 34.304L65.795 36.0741C65.7809 36.0741 65.7525 36.0884 65.7099 36.0884Z" fill="#B22222"/>
<path d="M71.1866 55.1036C71.1157 55.1036 71.0306 55.0893 70.9596 55.0465C70.534 54.8323 70.1084 54.661 70.1084 54.661C69.8531 54.5611 69.7254 54.2756 69.8247 54.0186C69.924 53.7617 70.2077 53.6332 70.4631 53.7331C70.4773 53.7474 70.9454 53.9187 71.4136 54.1614C71.6548 54.2899 71.7541 54.5897 71.6264 54.8323C71.5413 55.0036 71.371 55.1036 71.1866 55.1036Z" fill="#B22222"/>
<path d="M10.9941 74.9049L9.81664 73.5915L6.85174 76.2753L5.68848 74.9763L12.7106 68.6094L13.8739 69.9084L10.9373 72.578L12.1432 73.9341L16.8955 73.306L18.1439 74.705L12.5829 75.376L11.2069 81.1433L9.88757 79.6586L10.9941 74.9049Z" fill="#B22222"/>
<path d="M15.1939 83.9265C14.8393 83.1128 14.7116 82.2848 14.8109 81.414C14.9102 80.5575 15.2507 79.7581 15.8181 79.0157C16.3856 78.2734 17.0665 77.7595 17.8609 77.4454C18.6695 77.1314 19.5065 77.0314 20.3719 77.1885C21.2372 77.3312 22.06 77.7024 22.8119 78.2877C23.5779 78.873 24.1312 79.5868 24.4859 80.3862C24.8405 81.1999 24.9682 82.0279 24.8689 82.8844C24.7696 83.7409 24.4291 84.5404 23.8617 85.2827C23.2942 86.025 22.6133 86.5532 21.8047 86.8673C21.0103 87.1813 20.1733 87.267 19.2937 87.1242C18.4142 86.9815 17.6056 86.6103 16.8537 86.025C16.1018 85.4255 15.5486 84.726 15.1939 83.9265ZM19.4072 85.5111C19.9747 85.5968 20.5421 85.5254 21.0812 85.297C21.6203 85.0686 22.0884 84.7117 22.4714 84.1978C22.8544 83.6981 23.0956 83.1557 23.1807 82.5704C23.2658 81.9851 23.1949 81.4283 22.9679 80.8858C22.741 80.3434 22.3863 79.8866 21.8756 79.5011C21.3791 79.1157 20.84 78.873 20.2726 78.7873C19.7051 78.7017 19.1377 78.7731 18.5986 79.0015C18.0595 79.2299 17.5914 79.5868 17.2084 80.1007C16.8253 80.6003 16.5842 81.1428 16.4991 81.7281C16.4139 82.3134 16.4849 82.8701 16.7118 83.4126C16.9388 83.9551 17.2935 84.4119 17.8042 84.7973C18.3007 85.1828 18.8398 85.4255 19.4072 85.5111Z" fill="#B22222"/>
<path d="M33.8196 85.681C34.231 86.1949 34.4722 86.766 34.5289 87.3655C34.5857 87.9651 34.458 88.579 34.1459 89.1928C33.8338 89.8067 33.4224 90.2635 32.8975 90.5775C32.3726 90.8916 31.791 91.0201 31.1243 90.9773C30.4575 90.9344 29.7624 90.7346 29.0389 90.3634L27.138 89.3927L25.8896 91.8338L24.3291 91.0344L28.6275 82.5547L32.0889 84.3391C32.8266 84.7103 33.4082 85.1528 33.8196 85.681ZM31.408 89.3498C31.9045 89.2356 32.3017 88.9216 32.5712 88.3791C32.8408 87.8366 32.8833 87.337 32.6706 86.8659C32.4719 86.3948 32.018 85.9808 31.3371 85.6382L29.507 84.696L27.8047 88.065L29.6347 89.0072C30.3157 89.3498 30.9115 89.464 31.408 89.3498Z" fill="#B22222"/>
<path d="M43.14 94.2469C43.3245 94.718 43.3386 95.2319 43.1542 95.8029C42.9131 96.6023 42.4307 97.1305 41.7072 97.3875C40.9837 97.6444 40.0758 97.6016 38.9551 97.259L34.6709 95.9314L37.4514 86.8379L41.4944 88.0941C42.5158 88.4082 43.2393 88.8507 43.6791 89.436C44.1189 90.0213 44.2324 90.678 44.0054 91.4346C43.8635 91.9057 43.6224 92.2911 43.2819 92.5624C42.9414 92.8336 42.5442 93.0049 42.0477 93.0477C42.5868 93.3761 42.9414 93.7758 43.14 94.2469ZM41.5086 95.1462C41.7782 94.2612 41.3242 93.633 40.1326 93.2619L37.5507 92.4624L36.7279 95.132L39.3098 95.9314C40.5014 96.3168 41.2249 96.0456 41.5086 95.1462ZM37.9195 91.2347L40.1609 91.9342C40.7 92.1056 41.154 92.1198 41.4944 91.9913C41.8491 91.8629 42.0903 91.5916 42.2179 91.1634C42.3456 90.7351 42.303 90.3782 42.0903 90.0642C41.8775 89.7501 41.4944 89.5217 40.9554 89.3504L38.714 88.6509L37.9195 91.2347Z" fill="#B22222"/>
<path d="M53.3965 98.4868L53.2121 99.9572L46.1758 99.0435L47.3816 89.6074L54.2335 90.4925L54.0491 91.9629L48.9421 91.3062L48.63 93.7616L53.1554 94.3469L52.9709 95.7887L48.4456 95.2034L48.1193 97.8016L53.3965 98.4868Z" fill="#B22222"/>
<path d="M63.5533 91.8642L60.4182 91.9498L60.631 99.9726L58.8861 100.015L58.6733 91.9926L55.5523 92.0783L55.5098 90.5794L63.4966 90.3652L63.5533 91.8642Z" fill="#B22222"/>
<path d="M76.2936 96.1311L77.0029 99.6429L75.4141 99.9712L75.0027 97.9155L67.1436 99.5144L65.2568 90.1925L66.945 89.8499L68.5196 97.7157L73.1869 96.7592L71.6122 88.8934L73.3145 88.5508L74.8892 96.4166L76.2936 96.1311Z" fill="#B22222"/>
<path d="M85.9393 92.3772L86.4926 93.7476L79.9102 96.4029L76.4062 87.5663L82.8184 84.9824L83.3716 86.3529L78.5909 88.2801L79.4988 90.5784L83.7405 88.8796L84.2796 90.2358L80.0095 91.9346L80.9742 94.3757L85.9393 92.3772Z" fill="#B22222"/>
<path d="M92.0384 79.4727L97.0461 87.5383L95.5566 88.4805L93.4145 85.0258L89.2721 87.6383L91.4142 91.093L89.9247 92.0351L84.917 83.9695L86.4065 83.0273L88.4777 86.3535L92.6201 83.741L90.5489 80.4148L92.0384 79.4727Z" fill="#B22222"/>
<path d="M100.366 74.1467L98.0255 76.2452L103.345 82.2267L102.054 83.3973L96.7346 77.4158L94.4081 79.5143L93.415 78.4008L99.3732 73.0332L100.366 74.1467Z" fill="#B22222"/>
<path d="M104.68 67.2668C105.276 66.967 105.872 66.8385 106.467 66.9099C107.063 66.9813 107.631 67.224 108.17 67.6665C108.709 68.0948 109.063 68.6087 109.248 69.1797C109.432 69.7507 109.446 70.3646 109.276 71.007C109.106 71.6494 108.766 72.2918 108.241 72.9342L106.893 74.6044L109.007 76.3317L107.9 77.7022L100.552 71.7208L103.006 68.6801C103.531 68.0377 104.084 67.5666 104.68 67.2668ZM107.758 70.3931C107.758 69.8792 107.517 69.4224 107.049 69.0512C106.581 68.6658 106.099 68.5373 105.588 68.6372C105.091 68.7372 104.595 69.0941 104.112 69.6936L102.822 71.3068L105.744 73.6908L107.035 72.0919C107.517 71.4638 107.758 70.9071 107.758 70.3931Z" fill="#B22222"/>
<path d="M9.73223 35.0613C8.93781 35.4467 8.11501 35.6038 7.26384 35.5324C6.41267 35.461 5.60407 35.1469 4.8522 34.6045C4.10034 34.062 3.54708 33.3911 3.20661 32.6059C2.86614 31.8065 2.73847 30.9785 2.85196 30.1077C2.96544 29.2369 3.29173 28.4089 3.84499 27.6237C4.29894 26.9956 4.82383 26.496 5.40546 26.1248C6.00128 25.7537 6.62547 25.5538 7.3064 25.4824L7.51919 27.0385C6.52616 27.1669 5.73174 27.638 5.15011 28.4517C4.76708 28.9799 4.55429 29.5367 4.48336 30.122C4.41243 30.7073 4.49755 31.264 4.73871 31.7922C4.97988 32.3204 5.3629 32.7772 5.88779 33.1484C6.41267 33.5195 6.95175 33.7337 7.53338 33.805C8.11501 33.8621 8.66827 33.7622 9.19316 33.5195C9.71804 33.2626 10.172 32.8771 10.555 32.3489C11.1367 31.5352 11.3211 30.6216 11.1083 29.6223L12.6404 29.3225C12.7964 29.9792 12.8106 30.6502 12.6546 31.3354C12.4985 32.0206 12.2006 32.6773 11.7467 33.3197C11.1934 34.0906 10.5125 34.6758 9.73223 35.0613Z" fill="#B22222"/>
<path d="M15.931 27.2087C15.0798 27.4513 14.2429 27.4513 13.4059 27.2087C12.5689 26.9803 11.8454 26.5234 11.207 25.8668C10.5686 25.1958 10.1572 24.4392 9.95864 23.597C9.76003 22.7547 9.80259 21.8982 10.0721 21.0559C10.3417 20.2137 10.824 19.4571 11.5191 18.7861C12.2142 18.1152 12.9803 17.6583 13.8315 17.4299C14.6826 17.1872 15.5196 17.1872 16.3424 17.4157C17.1652 17.6441 17.9029 18.1009 18.5554 18.7718C19.208 19.4428 19.6194 20.1994 19.8038 21.0416C20.0024 21.8839 19.9599 22.7262 19.6903 23.5684C19.4208 24.4107 18.9385 25.1673 18.2433 25.8382C17.5624 26.5092 16.7822 26.966 15.931 27.2087ZM18.1157 23.2258C18.2859 22.669 18.3001 22.098 18.144 21.527C18.0022 20.956 17.7043 20.4421 17.2787 19.9853C16.8389 19.5284 16.3424 19.2144 15.7891 19.0431C15.2359 18.8718 14.6684 18.8575 14.1152 19.0145C13.5477 19.1573 13.0512 19.4571 12.5973 19.8853C12.1433 20.3136 11.8312 20.8275 11.661 21.3843C11.4907 21.941 11.4766 22.512 11.6326 23.0688C11.7745 23.6398 12.0724 24.1537 12.498 24.6105C12.9377 25.0673 13.4342 25.3814 13.9875 25.5527C14.5549 25.724 15.1082 25.7383 15.6615 25.5813C16.2147 25.4385 16.7254 25.1387 17.1794 24.6962C17.6475 24.2822 17.9454 23.7825 18.1157 23.2258Z" fill="#B22222"/>
<path d="M28.7704 17.574L25.6353 16.3035C25.5785 16.3606 25.4792 16.4319 25.3374 16.5176L23.5499 17.6882L25.0536 20.0151L23.5783 20.9858L18.4287 12.9915L21.6915 10.8502C22.3725 10.4077 23.0534 10.1222 23.7059 10.0222C24.3585 9.92231 24.9685 9.99368 25.5076 10.2364C26.0608 10.4791 26.5148 10.893 26.8978 11.4783C27.2809 12.0779 27.4795 12.6918 27.4653 13.3199C27.4511 13.948 27.2525 14.5333 26.8411 15.1043L30.3592 16.5319L28.7704 17.574ZM24.1457 11.6068C23.635 11.5497 23.0676 11.7353 22.415 12.1493L20.6985 13.2771L22.7555 16.4605L24.472 15.3327C25.1104 14.9187 25.5076 14.4619 25.6636 13.9623C25.8197 13.4626 25.7346 12.963 25.3941 12.4633C25.082 11.9494 24.6564 11.6639 24.1457 11.6068Z" fill="#B22222"/>
<path d="M36.4734 3.45508L36.374 13.8334L34.7852 14.5186L27.2949 7.38084L29.054 6.63852L34.7994 12.1631L34.8703 4.15458L36.4734 3.45508Z" fill="#B22222"/>
<path d="M48.0072 8.84987L48.3477 10.2917L41.4532 11.9477L39.2686 2.69712L45.9786 1.08398L46.3191 2.52581L41.3114 3.72496L41.8788 6.13752L46.3191 5.08113L46.6595 6.49441L42.2193 7.55079L42.8293 10.1061L48.0072 8.84987Z" fill="#B22222"/>
<path d="M51.8926 1.87009L48.7717 2.11278L48.6582 0.628123L56.6592 0L56.7727 1.48465L53.6517 1.72734L54.2759 9.72163L52.531 9.86438L51.8926 1.87009Z" fill="#B22222"/>
<path d="M60.7315 9.16465C59.9938 8.67928 59.4405 8.05116 59.0575 7.28028C58.6745 6.50941 58.5326 5.65287 58.6035 4.72497C58.6745 3.79706 58.9582 2.98335 59.4547 2.26958C59.9512 1.57008 60.6038 1.02761 61.3982 0.670719C62.1926 0.313831 63.0722 0.171076 64.0226 0.242454C64.7887 0.299556 65.4838 0.499413 66.108 0.813474C66.718 1.12754 67.2287 1.57008 67.6259 2.11255L66.4059 3.09756C65.7817 2.29813 64.9731 1.86986 63.9801 1.78421C63.3275 1.72711 62.7459 1.82704 62.2068 2.06972C61.6677 2.3124 61.2421 2.68357 60.9159 3.15466C60.5896 3.64003 60.4052 4.19677 60.3484 4.83917C60.2917 5.48157 60.391 6.06686 60.6463 6.59506C60.9159 7.13753 61.2847 7.56579 61.767 7.89413C62.2494 8.22247 62.831 8.40805 63.4694 8.46515C64.4624 8.53653 65.3277 8.23674 66.0796 7.53724L67.1294 8.70784C66.6471 9.1932 66.0796 9.53582 65.4129 9.76422C64.7461 9.97836 64.0368 10.0497 63.2566 9.99263C62.3061 9.92125 61.4691 9.63574 60.7315 9.16465Z" fill="#B22222"/>
<path d="M76.1949 10.8915L75.8402 12.3333L68.96 10.5775L71.2865 1.35547L77.9823 3.05426L77.6277 4.49608L72.6342 3.22556L72.0242 5.62385L76.4502 6.75162L76.0956 8.16489L71.6695 7.03713L71.0311 9.57817L76.1949 10.8915Z" fill="#B22222"/>
<path d="M89.5158 7.89399L85.6004 16.5592L84.2811 15.9597L82.1957 7.92254L79.5429 13.7898L77.9541 13.0617L81.8695 4.39648L83.1888 4.99606L85.2741 13.0332L87.9269 7.16593L89.5158 7.89399Z" fill="#B22222"/>
<path d="M94.0693 12.5193L91.4732 10.7492L92.3102 9.52148L98.9351 14.0754L98.0982 15.3173L95.5021 13.5472L91.0193 20.171L89.5723 19.1717L94.0693 12.5193Z" fill="#B22222"/>
<path d="M99.3598 27.2519L99.8705 23.8972C99.7996 23.8544 99.7144 23.7687 99.6009 23.6545L98.0547 22.1699L96.1537 24.1827L94.877 22.9693L101.388 16.0742L104.211 18.7723C104.807 19.3433 105.233 19.9286 105.488 20.5567C105.744 21.1706 105.814 21.7844 105.701 22.3697C105.588 22.955 105.29 23.5118 104.821 24.0114C104.325 24.5253 103.786 24.8537 103.176 24.9964C102.566 25.1249 101.942 25.0678 101.303 24.7966L100.722 28.5653L99.3598 27.2519ZM104.041 21.3419C103.97 20.828 103.672 20.314 103.119 19.7859L101.63 18.3583L99.0335 21.1135L100.523 22.541C101.076 23.0692 101.615 23.3547 102.126 23.3833C102.637 23.4118 103.105 23.212 103.516 22.7694C103.928 22.3412 104.112 21.8558 104.041 21.3419Z" fill="#B22222"/>
<path d="M107.474 35.0178L106.297 35.9028L102.041 30.1926L109.602 24.4824L113.745 30.0356L112.567 30.9207L109.489 26.7808L107.517 28.2654L110.255 31.9485L109.106 32.8336L106.368 29.1505L104.282 30.7208L107.474 35.0178Z" fill="#B22222"/>
<path d="M97.0899 59.3428C96.5083 59.3428 96.5083 59.3428 96.3948 55.2172C96.3238 53.033 96.2671 50.1208 96.2104 47.1943C96.182 45.7668 96.1536 44.2393 96.111 42.7832C96.0259 43.8681 95.955 44.9674 95.8699 46.0095C95.1464 56.0452 95.1464 56.0452 94.5648 56.0452C94.0115 56.0452 93.7987 55.417 93.3731 53.9895L93.2596 53.6326C93.2171 53.4756 93.1461 53.4042 93.061 53.4042C93.0327 53.4042 93.0185 53.4042 93.0043 53.4042C93.0043 53.4042 91.004 53.3899 90.6778 53.3899C90.6352 53.3899 90.5926 53.3899 90.5359 53.3899C90.1954 53.4042 89.5854 53.447 89.1031 52.7618C88.7768 52.2907 87.9966 51.5341 87.2873 51.5341C86.6915 51.5341 85.897 52.1479 85.3154 52.5905C85.1594 52.719 85.0033 52.8332 84.8615 52.9331C84.1096 53.4756 83.2442 53.3899 83.0173 53.3614H78.6196C78.35 53.3614 78.123 53.1329 78.123 52.8617C78.123 52.5905 78.35 52.3621 78.6196 52.3621H83.0456C83.074 52.3621 83.1024 52.3621 83.1449 52.3763C83.1449 52.3763 83.7691 52.4763 84.2798 52.1194C84.4075 52.0337 84.5494 51.9195 84.7054 51.8053C85.4431 51.2486 86.351 50.5348 87.2873 50.5348C88.4647 50.5348 89.4861 51.5769 89.9117 52.205C90.0536 52.4192 90.1529 52.4192 90.4508 52.4049C90.5217 52.4049 90.5785 52.3906 90.6494 52.3906C90.9473 52.3906 92.6922 52.4049 92.9475 52.4049C93.3022 52.3763 93.9406 52.5191 94.1959 53.3328L94.281 53.604C94.4371 51.734 94.6641 48.7218 94.8627 45.9524C95.6713 34.7461 95.6713 34.7461 96.2813 34.7461C96.9197 34.7461 96.9197 34.7461 97.1892 47.1943C97.2601 50.4349 97.3311 53.9467 97.4162 56.245C97.5013 55.9167 97.5864 55.6026 97.6573 55.3171C97.9836 54.0609 98.1113 53.5612 98.2106 53.3899C98.4092 52.9902 98.6362 52.5334 99.3455 52.4477C99.5015 52.4335 99.7711 52.4335 100.268 52.4477C101.119 52.462 102.892 52.5048 103.374 52.2764C103.601 52.1765 104.041 51.7054 104.438 51.2914C105.289 50.3921 106.155 49.4641 107.077 49.4641C108.198 49.4641 109.12 50.5491 109.73 51.2629C109.872 51.4342 109.999 51.5769 110.084 51.6626C110.169 51.7482 110.255 51.8339 110.34 51.9053C110.638 52.205 110.794 52.3621 111.276 52.3906C112.07 52.4335 115.475 52.3906 115.518 52.3906C115.787 52.3906 116.014 52.6048 116.014 52.8903C116.014 53.1615 115.801 53.3899 115.518 53.4042C115.376 53.4042 112.042 53.447 111.219 53.4042C110.354 53.3614 109.971 52.9759 109.63 52.619C109.559 52.5477 109.489 52.4763 109.418 52.4049C109.29 52.2907 109.148 52.1194 108.978 51.9195C108.51 51.3771 107.744 50.4634 107.077 50.4634C106.595 50.4634 105.729 51.3771 105.162 51.9766C104.637 52.5334 104.197 53.0045 103.786 53.1901C103.147 53.4756 101.743 53.4756 100.253 53.447C99.9129 53.4327 99.5583 53.4327 99.459 53.447C99.3171 53.4613 99.3029 53.4613 99.1185 53.8325C99.0618 53.9752 98.8348 54.8175 98.6504 55.5741C97.7283 59.0573 97.6148 59.3428 97.0899 59.3428Z" fill="#B22222"/>
<path d="M21.2792 59.4579C20.6976 59.4579 20.6976 59.4579 20.5841 55.3323C20.5132 53.1481 20.4564 50.2359 20.3997 47.3094C20.3713 45.8819 20.3429 44.3544 20.3004 42.884C20.2152 43.969 20.1443 45.0682 20.0592 46.1103C19.3357 56.146 19.3357 56.146 18.7541 56.146C18.2008 56.146 17.988 55.5178 17.5624 54.0903L17.4489 53.7191C17.4064 53.5621 17.3355 53.4907 17.2503 53.4907C17.222 53.4907 17.2078 53.4907 17.1936 53.4907C17.1936 53.4907 15.1933 53.4764 14.8671 53.4764C14.8245 53.4764 14.782 53.4764 14.7252 53.4764C14.3847 53.4907 13.7747 53.5335 13.2924 52.8483C12.9803 52.3915 12.2001 51.6349 11.4908 51.6349C10.895 51.6349 10.1005 52.2487 9.5189 52.6913C9.36285 52.8198 9.2068 52.934 9.06494 53.0339C8.31307 53.5764 7.44772 53.4907 7.22074 53.4622L0.496515 53.4479C0.226978 53.4479 0 53.2195 0 52.934C0 52.6627 0.226978 52.4343 0.496515 52.4343L7.2633 52.4486C7.29167 52.4486 7.32004 52.4486 7.34842 52.4629C7.34842 52.4629 7.97261 52.5628 8.48331 52.2059C8.61098 52.1203 8.75284 52.0061 8.90889 51.8919C9.64657 51.3351 10.5545 50.6213 11.4908 50.6213C12.6682 50.6213 13.6896 51.6635 14.1152 52.2916C14.2571 52.5057 14.3564 52.5057 14.6543 52.4914C14.7252 52.4914 14.782 52.4772 14.8529 52.4772C15.1508 52.4772 16.8957 52.4914 17.151 52.4914C17.4915 52.4486 18.1441 52.6056 18.3994 53.4193L18.4845 53.6763C18.6406 51.8062 18.8676 48.7941 19.0662 46.0246C19.8748 34.8184 19.8748 34.8184 20.4848 34.8184C21.1232 34.8184 21.1232 34.8184 21.3927 47.2809C21.4636 50.5214 21.5346 54.0332 21.6197 56.3173C21.7048 55.9889 21.7899 55.6749 21.8608 55.3894C22.1871 54.1331 22.3148 53.6335 22.4141 53.4479C22.6127 53.0482 22.8397 52.5914 23.549 52.5057C23.705 52.4914 23.9746 52.4914 24.4711 52.5057C25.3223 52.52 27.0955 52.5628 27.5778 52.3344C27.8048 52.2345 28.2446 51.7634 28.6418 51.3494C29.493 50.45 30.3583 49.5221 31.2804 49.5221C32.1174 49.5221 33.5786 50.7641 36.6995 54.0903C36.9974 54.4043 37.196 54.6328 37.2812 54.7041C37.4798 54.8897 37.494 55.2038 37.3095 55.4179C37.1251 55.6178 36.813 55.632 36.6002 55.4465C36.5151 55.3608 36.2739 55.1181 35.9618 54.7755C32.7132 51.3066 31.6067 50.55 31.2662 50.5214C30.7839 50.5214 29.9186 51.435 29.3511 52.0346C28.8262 52.5914 28.3865 53.0625 27.9751 53.248C27.3367 53.5335 25.9323 53.5335 24.4285 53.505C24.0881 53.505 23.7334 53.4907 23.6341 53.505C23.4922 53.5193 23.4781 53.5193 23.2936 53.8904C23.2369 54.0332 23.0099 54.8754 22.8255 55.632C21.9176 59.1724 21.8041 59.4579 21.2792 59.4579Z" fill="#B22222"/>
</g>
<defs>
<clipPath id="clip0">
<rect width="116" height="100" fill="white"/>
</clipPath>
</defs>
</svg>
