<svg width="770" height="290" viewBox="0 0 770 290" fill="none" xmlns="http://www.w3.org/2000/svg">
<path d="M238.356 203.329H174.357V288.768H166.152V203.329H0V197.167L161.639 1.23228H171.485L11.0768 195.524H166.152V120.354H174.357V195.524H238.356V203.329Z" fill="#B81F21"/>
<path d="M378.889 290C357.283 290 338.138 284.112 321.454 272.337C305.044 260.288 292.19 243.31 282.891 221.402C273.865 199.495 269.352 174.027 269.352 145C269.352 115.973 273.865 90.5052 282.891 68.5977C292.19 46.6903 305.044 29.8489 321.454 18.0736C338.138 6.02455 357.283 0 378.889 0C400.496 0 419.504 6.02455 435.914 18.0736C452.598 29.8489 465.453 46.6903 474.478 68.5977C483.777 90.5052 488.427 115.973 488.427 145C488.427 174.027 483.777 199.495 474.478 221.402C465.453 243.31 452.598 260.288 435.914 272.337C419.504 284.112 400.496 290 378.889 290ZM378.889 282.195C398.855 282.195 416.496 276.582 431.812 265.354C447.128 254.127 459.025 238.244 467.504 217.705C475.982 196.893 480.222 172.658 480.222 145C480.222 117.342 475.982 93.2436 467.504 72.7054C459.025 51.8933 447.128 35.8735 431.812 24.6459C416.496 13.4183 398.855 7.80453 378.889 7.80453C358.924 7.80453 341.283 13.4183 325.967 24.6459C310.651 35.8735 298.754 51.8933 290.275 72.7054C281.797 93.2436 277.557 117.342 277.557 145C277.557 172.658 281.797 196.893 290.275 217.705C298.754 238.244 310.651 254.127 325.967 265.354C341.283 276.582 358.924 282.195 378.889 282.195Z" fill="#B81F21"/>
<path d="M770 203.329H706.001V288.768H697.796V203.329H531.644V197.167L693.283 1.23228H703.129L542.721 195.524H697.796V120.354H706.001V195.524H770V203.329Z" fill="#B81F21"/>
</svg>
