<svg width="24" height="24" viewBox="0 0 24 24" fill="none" xmlns="http://www.w3.org/2000/svg">
<g clip-path="url(#clip0)">
<path fill-rule="evenodd" clip-rule="evenodd" d="M21.4656 4.72692C22.4638 4.99538 23.2509 5.78124 23.5195 6.77822C24.0188 8.59924 23.9996 12.395 23.9996 12.395C23.9996 12.395 23.9996 16.1715 23.5197 17.9927C23.2509 18.9895 22.4639 19.7755 21.4656 20.0438C19.6419 20.5232 12.3474 20.5232 12.3474 20.5232C12.3474 20.5232 5.07197 20.5232 3.22928 20.0248C2.23095 19.7563 1.44402 18.9703 1.17519 17.9735C0.695312 16.1715 0.695312 12.3759 0.695312 12.3759C0.695312 12.3759 0.695312 8.59924 1.17519 6.77822C1.44384 5.78142 2.25015 4.9762 3.2291 4.70792C5.05277 4.22852 12.3473 4.22852 12.3473 4.22852C12.3473 4.22852 19.6419 4.22852 21.4656 4.72692ZM16.0898 12.3754L10.0238 15.8644V8.88644L16.0898 12.3754Z" fill="#B81F21"/>
</g>
<defs>
<clipPath id="clip0">
<rect x="0.695312" y="0.726562" width="23.3043" height="23.2727" fill="white"/>
</clipPath>
</defs>
</svg>
